HIERARCHY
ROOT joint_0
{
	OFFSET 0.000000 0.000000 0.000000
	CHANNELS 6 Xposition Yposition Zposition Zrotation Yrotation Xrotation 
	JOINT joint_1
	{
		OFFSET 10.084412 4.114712 95.061035
		CHANNELS 3 Zrotation Yrotation Xrotation
		JOINT joint_2
		{
			OFFSET -1.615463 4.243484 87.329956
			CHANNELS 3 Zrotation Yrotation Xrotation
			JOINT joint_3
			{
				OFFSET -3.579636 4.638191 87.154053
				CHANNELS 3 Zrotation Yrotation Xrotation
				JOINT joint_4
				{
					OFFSET 5.443451 7.217075 123.562988
					CHANNELS 3 Zrotation Yrotation Xrotation
					JOINT joint_5
					{
						OFFSET 21.688065 15.141808 90.458008
						CHANNELS 3 Zrotation Yrotation Xrotation
						End Site
						{
							OFFSET 0.000000 0.000000 0.000000
						}
					}
				}
				JOINT joint_6
				{
					OFFSET 3.611374 -22.863556 70.791992
					CHANNELS 3 Zrotation Yrotation Xrotation
					JOINT joint_7
					{
						OFFSET 3.493607 -153.029137 -12.665039
						CHANNELS 3 Zrotation Yrotation Xrotation
						JOINT joint_8
						{
							OFFSET -14.929443 -32.628616 -254.032959
							CHANNELS 3 Zrotation Yrotation Xrotation
							JOINT joint_9
							{
								OFFSET 11.589401 -3.548126 -242.255005
								CHANNELS 3 Zrotation Yrotation Xrotation
								End Site
								{
									OFFSET 0.000000 0.000000 0.000000
								}
							}
						}
					}
				}
				JOINT joint_10
				{
					OFFSET 2.651962 30.943008 67.690918
					CHANNELS 3 Zrotation Yrotation Xrotation
					JOINT joint_11
					{
						OFFSET -6.172562 150.392159 -30.576904
						CHANNELS 3 Zrotation Yrotation Xrotation
						JOINT joint_12
						{
							OFFSET 15.363358 20.741959 -255.254028
							CHANNELS 3 Zrotation Yrotation Xrotation
							JOINT joint_13
							{
								OFFSET 23.282578 -11.086121 -241.182983
								CHANNELS 3 Zrotation Yrotation Xrotation
								End Site
								{
									OFFSET 0.000000 0.000000 0.000000
								}
							}
						}
					}
				}
			}
		}
	}
	JOINT joint_14
	{
		OFFSET -7.080551 -92.910816 -106.291992
		CHANNELS 3 Zrotation Yrotation Xrotation
		JOINT joint_15
		{
			OFFSET -38.248322 -6.001282 -411.906006
			CHANNELS 3 Zrotation Yrotation Xrotation
			JOINT joint_16
			{
				OFFSET -11.189407 -11.244659 -448.150986
				CHANNELS 3 Zrotation Yrotation Xrotation
				JOINT joint_17
				{
					OFFSET 169.870491 -24.631378 -80.352999
					CHANNELS 3 Zrotation Yrotation Xrotation
					End Site
					{
						OFFSET 0.000000 0.000000 0.000000
					}
				}
			}
		}
	}
	JOINT joint_18
	{
		OFFSET -2.796600 85.817772 -112.273987
		CHANNELS 3 Zrotation Yrotation Xrotation
		JOINT joint_19
		{
			OFFSET -44.395859 -8.174402 -411.255005
			CHANNELS 3 Zrotation Yrotation Xrotation
			JOINT joint_20
			{
				OFFSET -25.617508 -5.555587 -447.666992
				CHANNELS 3 Zrotation Yrotation Xrotation
				JOINT joint_21
				{
					OFFSET 163.870811 53.215703 -78.867000
					CHANNELS 3 Zrotation Yrotation Xrotation
					End Site
					{
						OFFSET 0.000000 0.000000 0.000000
					}
				}
			}
		}
	}
}
MOTION
Frames: 15
Frame Time: 0.016667
397.387115 3.169287 1062.099976 -7.466674 -1.990178 2.138880 -1.572401 -3.042550 -0.303719 -1.733424 0.466455 -0.114349 -1.661691 -0.676986 0.062033 -2.599895 8.754999 6.193799 0.000000 0.000000 0.000000 -1.462777 -0.150444 3.472739 0.421876 -0.534910 -3.875386 -0.072772 1.626031 -0.422336 0.000000 0.000000 0.000000 -3.469198 1.684347 -1.361182 0.880803 2.573209 -0.791397 0.544910 -5.319727 3.033928 0.000000 0.000000 0.000000 22.589362 0.109069 -4.442813 21.604048 5.898558 3.170306 22.533017 -6.882382 9.864124 0.000000 0.000000 0.000000 17.316373 -2.494732 4.484125 17.718939 2.221032 0.028527 17.459077 8.111777 5.549416 0.000000 0.000000 0.000000 
397.368408 3.585048 1062.112061 -7.475173 -2.005448 2.122075 -1.573351 -3.025883 -0.306439 -1.733513 0.464064 -0.117987 -1.661681 -0.675662 0.065837 -2.603433 8.763403 6.208572 0.000000 0.000000 0.000000 -1.458319 -0.165413 3.487677 0.422442 -0.550344 -3.878870 -0.073185 1.621365 -0.433822 0.000000 0.000000 0.000000 -3.475843 1.675904 -1.369632 0.886240 2.568496 -0.762201 0.543935 -5.365076 3.002537 0.000000 0.000000 0.000000 22.559293 0.129873 -4.447924 21.576448 5.883777 3.157512 22.498583 -6.895130 9.847272 0.000000 0.000000 0.000000 17.314731 -2.490326 4.478276 17.714967 2.238717 0.036860 17.456800 8.096427 5.554443 0.000000 0.000000 0.000000 
397.316620 4.016632 1062.163940 -7.485274 -2.024230 2.100410 -1.573052 -3.004579 -0.298457 -1.732159 0.460501 -0.122350 -1.660530 -0.670170 0.068500 -2.605659 8.767299 6.219327 0.000000 0.000000 0.000000 -1.451327 -0.171213 3.502471 0.417847 -0.555982 -3.889538 -0.069728 1.535520 -0.407807 0.000000 0.000000 0.000000 -3.482022 1.672851 -1.383370 0.901444 2.571678 -0.720345 0.543411 -5.483207 2.935175 0.000000 0.000000 0.000000 22.535046 0.152886 -4.445198 21.555377 5.865208 3.141727 22.469418 -6.893725 9.835429 0.000000 0.000000 0.000000 17.312806 -2.496218 4.472759 17.708619 2.273050 0.059522 17.455040 8.079441 5.559738 0.000000 0.000000 0.000000 
397.203979 4.467962 1062.298950 -7.497840 -2.048735 2.068011 -1.569466 -2.975979 -0.271392 -1.726976 0.453277 -0.124813 -1.656307 -0.657270 0.069325 -2.604516 8.763163 6.217579 0.000000 0.000000 0.000000 -1.442114 -0.159402 3.526660 0.407638 -0.544127 -3.927090 -0.060009 1.332669 -0.318513 0.000000 0.000000 0.000000 -3.489194 1.678690 -1.415575 0.933208 2.589146 -0.649028 0.543547 -5.718892 2.805676 0.000000 0.000000 0.000000 22.530396 0.179016 -4.425592 21.554883 5.840172 3.122026 22.459564 -6.870932 9.836777 0.000000 0.000000 0.000000 17.309447 -2.522617 4.470734 17.697612 2.338259 0.107739 17.453978 8.061598 5.564655 0.000000 0.000000 0.000000 
397.049316 4.936367 1062.503052 -7.512199 -2.077934 2.026268 -1.563644 -2.941718 -0.227466 -1.719243 0.443390 -0.126599 -1.650147 -0.638766 0.066951 -2.601398 8.753900 6.208930 0.000000 0.000000 0.000000 -1.428854 -0.135057 3.560019 0.394531 -0.519832 -3.985883 -0.045025 1.045739 -0.180183 0.000000 0.000000 0.000000 -3.496102 1.691172 -1.461312 0.978524 2.617383 -0.553414 0.544822 -6.045108 2.626638 0.000000 0.000000 0.000000 22.538646 0.209710 -4.391020 21.568664 5.806746 3.096333 22.461669 -6.828093 9.847528 0.000000 0.000000 0.000000 17.304802 -2.565978 4.471592 17.682470 2.429369 0.178103 17.453503 8.042468 5.569415 0.000000 0.000000 0.000000 
396.828308 5.428344 1062.692993 -7.528358 -2.110789 1.989191 -1.558694 -2.896888 -0.181135 -1.711669 0.431052 -0.131682 -1.644014 -0.619074 0.068376 -2.596949 8.738799 6.196354 0.000000 0.000000 0.000000 -1.416975 -0.093975 3.572499 0.366610 -0.476336 -4.028974 -0.021071 0.580182 0.001565 0.000000 0.000000 0.000000 -3.499789 1.712695 -1.501405 1.038341 2.656382 -0.460967 0.549818 -6.468975 2.409103 0.000000 0.000000 0.000000 22.549481 0.230727 -4.365310 21.582482 5.791154 3.084422 22.469335 -6.786635 9.860292 0.000000 0.000000 0.000000 17.301533 -2.609541 4.466352 17.667706 2.524051 0.249645 17.453973 8.021308 5.575306 0.000000 0.000000 0.000000 
396.514252 5.954762 1062.811035 -7.545903 -2.148006 1.967032 -1.556271 -2.837711 -0.142222 -1.705799 0.421615 -0.138778 -1.638892 -0.605259 0.072084 -2.592640 8.716213 6.188079 0.000000 0.000000 0.000000 -1.409480 -0.024051 3.544783 0.313454 -0.399572 -4.029566 0.018638 -0.173194 0.231431 0.000000 0.000000 0.000000 -3.495492 1.747058 -1.519027 1.116311 2.708021 -0.393520 0.561553 -7.013220 2.154810 0.000000 0.000000 0.000000 22.554327 0.227508 -4.366680 21.584031 5.820972 3.106230 22.478220 -6.761391 9.869640 0.000000 0.000000 0.000000 17.301468 -2.645696 4.446604 17.655242 2.614731 0.313564 17.455612 7.998048 5.582873 0.000000 0.000000 0.000000 
396.115143 6.515466 1062.886963 -7.565430 -2.191090 1.954410 -1.555418 -2.761827 -0.102865 -1.700565 0.411055 -0.152590 -1.633687 -0.594317 0.082570 -2.587472 8.685976 6.179239 0.000000 0.000000 0.000000 -1.404709 0.073320 3.488710 0.245307 -0.292700 -4.005484 0.077676 -1.176552 0.511018 0.000000 0.000000 0.000000 -3.484655 1.792477 -1.526217 1.213517 2.772060 -0.338999 0.580556 -7.672551 1.857564 0.000000 0.000000 0.000000 22.556873 0.206306 -4.386065 21.578430 5.886352 3.154908 22.490716 -6.744808 9.878227 0.000000 0.000000 0.000000 17.303889 -2.679235 4.415812 17.643678 2.709194 0.377896 17.458614 7.971589 5.592214 0.000000 0.000000 0.000000 
395.684509 7.067527 1062.947998 -7.584027 -2.228007 1.947061 -1.556528 -2.693336 -0.072137 -1.697422 0.399326 -0.161826 -1.631041 -0.582222 0.090069 -2.582151 8.661762 6.167575 0.000000 0.000000 0.000000 -1.406325 0.164885 3.435766 0.184239 -0.193315 -3.982181 0.148778 -2.234067 0.801279 0.000000 0.000000 0.000000 -3.476894 1.842211 -1.528455 1.320817 2.843116 -0.274068 0.604076 -8.372728 1.535585 0.000000 0.000000 0.000000 22.565425 0.185991 -4.411500 21.579382 5.941057 3.195673 22.507120 -6.729939 9.889064 0.000000 0.000000 0.000000 17.307543 -2.704747 4.384811 17.636581 2.780475 0.420545 17.461670 7.947775 5.601611 0.000000 0.000000 0.000000 
395.258453 7.580565 1063.005981 -7.599302 -2.250853 1.941878 -1.560109 -2.648407 -0.052193 -1.697810 0.389081 -0.166359 -1.632169 -0.572270 0.092389 -2.577477 8.660148 6.148554 0.000000 0.000000 0.000000 -1.425550 0.223765 3.402938 0.141270 -0.131182 -3.969437 0.222943 -3.209564 1.073329 0.000000 0.000000 0.000000 -3.482929 1.889233 -1.531577 1.426170 2.914724 -0.186554 0.628902 -9.030505 1.224881 0.000000 0.000000 0.000000 22.589072 0.180965 -4.434683 21.599527 5.951488 3.205497 22.530774 -6.712347 9.905737 0.000000 0.000000 0.000000 17.311503 -2.716926 4.362850 17.637042 2.808870 0.422945 17.463832 7.927783 5.610871 0.000000 0.000000 0.000000 
394.817963 8.070390 1063.053955 -7.612968 -2.263492 1.940522 -1.566543 -2.619847 -0.042106 -1.701680 0.380013 -0.165736 -1.637042 -0.563544 0.090980 -2.572839 8.674544 6.122812 0.000000 0.000000 0.000000 -1.456855 0.262274 3.381523 0.109757 -0.092306 -3.961134 0.304355 -4.176513 1.342208 0.000000 0.000000 0.000000 -3.496632 1.936037 -1.535006 1.533475 2.988512 -0.084303 0.656514 -9.674771 0.920160 0.000000 0.000000 0.000000 22.625306 0.183710 -4.460588 21.634261 5.934377 3.197716 22.562078 -6.693374 9.927581 0.000000 0.000000 0.000000 17.316406 -2.718497 4.345818 17.643906 2.804697 0.393201 17.465723 7.910669 5.620308 0.000000 0.000000 0.000000 
394.358246 8.552851 1063.098999 -7.625010 -2.269856 1.942660 -1.570436 -2.598543 -0.039306 -1.703449 0.372602 -0.163610 -1.639682 -0.557402 0.089282 -2.569542 8.688499 6.102516 0.000000 0.000000 0.000000 -1.486974 0.306009 3.365223 0.086248 -0.049780 -3.969378 0.396025 -5.172865 1.622876 0.000000 0.000000 0.000000 -3.516157 1.997249 -1.525618 1.666968 3.083071 0.038721 0.690950 -10.455819 0.514436 0.000000 0.000000 0.000000 22.654596 0.188509 -4.487979 21.664358 5.906033 3.172732 22.583259 -6.679275 9.944684 0.000000 0.000000 0.000000 17.322866 -2.711810 4.325605 17.654069 2.773915 0.349786 17.467052 7.897679 5.628956 0.000000 0.000000 0.000000 
393.882996 9.032467 1063.147949 -7.637685 -2.270385 1.948436 -1.569164 -2.583819 -0.043647 -1.700739 0.369031 -0.159664 -1.637590 -0.555585 0.085817 -2.568723 8.691227 6.097385 0.000000 0.000000 0.000000 -1.497877 0.375271 3.356477 0.068025 0.017899 -4.010228 0.501273 -6.238052 1.922581 0.000000 0.000000 0.000000 -3.535634 2.089076 -1.500824 1.853714 3.219555 0.210063 0.739620 -11.507311 -0.091501 0.000000 0.000000 0.000000 22.661341 0.192727 -4.514741 21.675518 5.872885 3.123537 22.578713 -6.674136 9.948946 0.000000 0.000000 0.000000 17.332590 -2.694885 4.297091 17.667460 2.711846 0.300591 17.468396 7.891177 5.636269 0.000000 0.000000 0.000000 
393.392181 9.502178 1063.197021 -7.650658 -2.263643 1.957947 -1.563930 -2.579207 -0.056427 -1.694925 0.370513 -0.154648 -1.631914 -0.558211 0.083247 -2.569737 8.686946 6.102319 0.000000 0.000000 0.000000 -1.498210 0.460424 3.356768 0.056327 0.100229 -4.079175 0.619323 -7.361042 2.232451 0.000000 0.000000 0.000000 -3.559106 2.203856 -1.473320 2.089680 3.390896 0.434371 0.805827 -12.769300 -0.862448 0.000000 0.000000 0.000000 22.652530 0.198216 -4.541139 21.674610 5.829099 3.050039 22.554926 -6.674627 9.944083 0.000000 0.000000 0.000000 17.345503 -2.667163 4.263146 17.685332 2.616339 0.239054 17.470157 7.890684 5.642730 0.000000 0.000000 0.000000 
392.870392 9.995481 1063.245972 -7.655674 -2.256128 1.968679 -1.557787 -2.570775 -0.068907 -1.687882 0.371326 -0.150646 -1.624949 -0.561224 0.081214 -2.572404 8.682811 6.112447 0.000000 0.000000 0.000000 -1.497939 0.545688 3.349516 0.054181 0.181818 -4.150955 0.743061 -8.464959 2.555128 0.000000 0.000000 0.000000 -3.577463 2.309158 -1.431653 2.338275 3.551676 0.630890 0.881874 -14.059627 -1.693091 0.000000 0.000000 0.000000 22.642775 0.200365 -4.574494 21.671361 5.787937 2.984434 22.531299 -6.680918 9.938102 0.000000 0.000000 0.000000 17.355661 -2.644855 4.223984 17.699418 2.523769 0.180622 17.469013 7.888984 5.648232 0.000000 0.000000 0.000000 
